# xmcd
# 
# Track frame offsets:
#     150
#     12672
#     24697
#     44577
#     56366
#     73933
#     87837
#     104847
#     116661
#     144159
#     159429
#     175121
#     187296
#     203535
#     221204
#     233519
#     245526
#     269425
#     283546
#     296388
#     320468
#     336577
# 
# Disc length: 4732
# 
# Revision: 10
# Processed by: cddbd v1.5.2PL0 Copyright (c) Steve Scherf et al.
# Submitted via: fre:ac v1.0.31
# 
DISCID=56127a16
DTITLE=R&B - What It Is! Disc 4
DYEAR=2006
DGENRE=R&B
TTITLE0=United 8 - Getting Uptown (To Get Down)
TTITLE1=Howard Tate - 8 Days On The Road
TTITLE2=LaBelle - Moon Shadow
TTITLE3=Society's Bag - Let It Crawl
TTITLE4=Black Heat - Wanaoh
TTITLE5=Clarence Reid - If It Was Good Enough For Daddy
TTITLE6=Claudia Lennear - Everything I Do Gonna Be Funky
TTITLE7=Mystic Moods - Cosmic Sea
TTITLE8=Cold Blood - Kissing My Love
TTITLE9=Seatrain - Flute Thing
TTITLE10=The Meters - Chug Chug Chug-A-Lug (Push N' Shove) (Part 2)
TTITLE11=Freddi/Henchi and The Soul Setters - Funky To The Bone
TTITLE12=Bobby Byrd - Try It Again
TTITLE13=Cornell Dupree - Teasin'
TTITLE14=Dr. John - (Everybody Wanna Get Rich) Rite Away
TTITLE15=Oscar Brown, Jr. - Chicken Heads
TTITLE16=Funk Factory - Rien Ne Va Plus
TTITLE17=Herbie Mann - Cajun Moon
TTITLE18=Darrow Fletcher - Improve
TTITLE19=Faze-O - Riding High
TTITLE20=Fred Wesley and The Horny Horns - Four Play
TTITLE21=Eddie Hazel - California Dreamin'
EXTD=
EXTT0=
EXTT1=
EXTT2=
EXTT3=
EXTT4=
EXTT5=
EXTT6=
EXTT7=
EXTT8=
EXTT9=
EXTT10=
EXTT11=
EXTT12=
EXTT13=
EXTT14=
EXTT15=
EXTT16=
EXTT17=
EXTT18=
EXTT19=
EXTT20=
EXTT21=
PLAYORDER=
